<mxfile host="app.diagrams.net" modified="2021-12-27T11:51:24.116Z" agent="5.0 (Windows NT 10.0; Win64; x64) AppleWebKit/537.36 (KHTML, like Gecko) Chrome/96.0.4664.110 Safari/537.36" etag="oW2PEH1XdCOxo9cGeztk" version="16.1.0" type="github">
  <diagram id="4yBUrwVcdltaq95xlQeb" name="第 1 页">
    <mxGraphModel dx="1422" dy="762" grid="0" gridSize="10" guides="1" tooltips="1" connect="1" arrows="1" fold="1" page="0" pageScale="1" pageWidth="827" pageHeight="1169" math="0" shadow="0">
      <root>
        <mxCell id="0" />
        <mxCell id="1" parent="0" />
        <mxCell id="YblVoAuH88jNYZOuT4qQ-11" value="" style="edgeStyle=orthogonalEdgeStyle;rounded=0;orthogonalLoop=1;jettySize=auto;html=1;" edge="1" parent="1" source="YblVoAuH88jNYZOuT4qQ-1" target="YblVoAuH88jNYZOuT4qQ-2">
          <mxGeometry relative="1" as="geometry" />
        </mxCell>
        <mxCell id="YblVoAuH88jNYZOuT4qQ-1" value="&lt;font style=&quot;font-size: 14px&quot;&gt;&lt;b&gt;开始&lt;/b&gt;&lt;/font&gt;" style="rounded=1;whiteSpace=wrap;html=1;fillColor=#fff2cc;strokeColor=#d6b656;sketch=1;" vertex="1" parent="1">
          <mxGeometry x="337.5" y="83" width="136" height="50" as="geometry" />
        </mxCell>
        <mxCell id="YblVoAuH88jNYZOuT4qQ-12" value="" style="edgeStyle=orthogonalEdgeStyle;rounded=0;orthogonalLoop=1;jettySize=auto;html=1;" edge="1" parent="1" source="YblVoAuH88jNYZOuT4qQ-2" target="YblVoAuH88jNYZOuT4qQ-10">
          <mxGeometry relative="1" as="geometry" />
        </mxCell>
        <mxCell id="YblVoAuH88jNYZOuT4qQ-2" value="&lt;b&gt;申请任务&lt;/b&gt;" style="rounded=0;whiteSpace=wrap;html=1;fontSize=14;fillColor=#d5e8d4;strokeColor=#82b366;sketch=1;" vertex="1" parent="1">
          <mxGeometry x="336.5" y="176" width="138" height="48" as="geometry" />
        </mxCell>
        <mxCell id="YblVoAuH88jNYZOuT4qQ-3" value="&lt;font style=&quot;font-size: 14px&quot;&gt;&lt;b&gt;结束&lt;/b&gt;&lt;/font&gt;" style="rounded=1;whiteSpace=wrap;html=1;fillColor=#fff2cc;strokeColor=#d6b656;sketch=1;" vertex="1" parent="1">
          <mxGeometry x="339.5" y="702" width="136" height="50" as="geometry" />
        </mxCell>
        <mxCell id="YblVoAuH88jNYZOuT4qQ-14" value="" style="edgeStyle=orthogonalEdgeStyle;rounded=0;orthogonalLoop=1;jettySize=auto;html=1;" edge="1" parent="1" source="YblVoAuH88jNYZOuT4qQ-4" target="YblVoAuH88jNYZOuT4qQ-5">
          <mxGeometry relative="1" as="geometry" />
        </mxCell>
        <mxCell id="YblVoAuH88jNYZOuT4qQ-19" style="edgeStyle=orthogonalEdgeStyle;rounded=0;orthogonalLoop=1;jettySize=auto;html=1;" edge="1" parent="1" source="YblVoAuH88jNYZOuT4qQ-4" target="YblVoAuH88jNYZOuT4qQ-8">
          <mxGeometry relative="1" as="geometry" />
        </mxCell>
        <mxCell id="YblVoAuH88jNYZOuT4qQ-4" value="&lt;b&gt;线程池是否已停止运行&lt;/b&gt;" style="rhombus;whiteSpace=wrap;html=1;sketch=1;fontSize=14;fillColor=#f8cecc;strokeColor=#b85450;" vertex="1" parent="1">
          <mxGeometry x="281" y="367" width="249" height="52" as="geometry" />
        </mxCell>
        <mxCell id="YblVoAuH88jNYZOuT4qQ-15" value="" style="edgeStyle=orthogonalEdgeStyle;rounded=0;orthogonalLoop=1;jettySize=auto;html=1;" edge="1" parent="1" source="YblVoAuH88jNYZOuT4qQ-5" target="YblVoAuH88jNYZOuT4qQ-6">
          <mxGeometry relative="1" as="geometry" />
        </mxCell>
        <mxCell id="YblVoAuH88jNYZOuT4qQ-18" value="" style="edgeStyle=orthogonalEdgeStyle;rounded=0;orthogonalLoop=1;jettySize=auto;html=1;" edge="1" parent="1" source="YblVoAuH88jNYZOuT4qQ-5" target="YblVoAuH88jNYZOuT4qQ-8">
          <mxGeometry relative="1" as="geometry" />
        </mxCell>
        <mxCell id="YblVoAuH88jNYZOuT4qQ-5" value="&lt;b&gt;线程数现阶段是否过多&lt;/b&gt;" style="rhombus;whiteSpace=wrap;html=1;sketch=1;fontSize=14;fillColor=#f8cecc;strokeColor=#b85450;" vertex="1" parent="1">
          <mxGeometry x="281" y="479" width="249" height="52" as="geometry" />
        </mxCell>
        <mxCell id="YblVoAuH88jNYZOuT4qQ-16" value="" style="edgeStyle=orthogonalEdgeStyle;rounded=0;orthogonalLoop=1;jettySize=auto;html=1;" edge="1" parent="1" source="YblVoAuH88jNYZOuT4qQ-6" target="YblVoAuH88jNYZOuT4qQ-7">
          <mxGeometry relative="1" as="geometry" />
        </mxCell>
        <mxCell id="YblVoAuH88jNYZOuT4qQ-17" value="" style="edgeStyle=orthogonalEdgeStyle;rounded=0;orthogonalLoop=1;jettySize=auto;html=1;" edge="1" parent="1" source="YblVoAuH88jNYZOuT4qQ-6" target="YblVoAuH88jNYZOuT4qQ-9">
          <mxGeometry relative="1" as="geometry" />
        </mxCell>
        <mxCell id="YblVoAuH88jNYZOuT4qQ-6" value="&lt;b&gt;该线程是否为可回收线程&lt;/b&gt;" style="rhombus;whiteSpace=wrap;html=1;sketch=1;fontSize=14;fillColor=#f8cecc;strokeColor=#b85450;" vertex="1" parent="1">
          <mxGeometry x="281" y="584" width="249" height="52" as="geometry" />
        </mxCell>
        <mxCell id="YblVoAuH88jNYZOuT4qQ-20" style="edgeStyle=orthogonalEdgeStyle;rounded=0;orthogonalLoop=1;jettySize=auto;html=1;entryX=0;entryY=0.5;entryDx=0;entryDy=0;" edge="1" parent="1" source="YblVoAuH88jNYZOuT4qQ-7" target="YblVoAuH88jNYZOuT4qQ-3">
          <mxGeometry relative="1" as="geometry">
            <Array as="points">
              <mxPoint x="131" y="727" />
            </Array>
          </mxGeometry>
        </mxCell>
        <mxCell id="YblVoAuH88jNYZOuT4qQ-7" value="&lt;b&gt;阻塞获取任务&lt;/b&gt;" style="rounded=0;whiteSpace=wrap;html=1;fontSize=14;fillColor=#d5e8d4;strokeColor=#82b366;sketch=1;" vertex="1" parent="1">
          <mxGeometry x="62" y="586" width="138" height="48" as="geometry" />
        </mxCell>
        <mxCell id="YblVoAuH88jNYZOuT4qQ-21" style="edgeStyle=orthogonalEdgeStyle;rounded=0;orthogonalLoop=1;jettySize=auto;html=1;entryX=1;entryY=0.5;entryDx=0;entryDy=0;" edge="1" parent="1" source="YblVoAuH88jNYZOuT4qQ-8" target="YblVoAuH88jNYZOuT4qQ-3">
          <mxGeometry relative="1" as="geometry">
            <Array as="points">
              <mxPoint x="805" y="505" />
              <mxPoint x="805" y="727" />
            </Array>
          </mxGeometry>
        </mxCell>
        <mxCell id="YblVoAuH88jNYZOuT4qQ-8" value="&lt;b&gt;返回null值&lt;/b&gt;" style="rounded=0;whiteSpace=wrap;html=1;fontSize=14;fillColor=#d5e8d4;strokeColor=#82b366;sketch=1;" vertex="1" parent="1">
          <mxGeometry x="611" y="481" width="138" height="48" as="geometry" />
        </mxCell>
        <mxCell id="YblVoAuH88jNYZOuT4qQ-23" style="edgeStyle=orthogonalEdgeStyle;rounded=0;orthogonalLoop=1;jettySize=auto;html=1;entryX=1;entryY=0.5;entryDx=0;entryDy=0;" edge="1" parent="1" source="YblVoAuH88jNYZOuT4qQ-9" target="YblVoAuH88jNYZOuT4qQ-3">
          <mxGeometry relative="1" as="geometry">
            <Array as="points">
              <mxPoint x="804" y="610" />
              <mxPoint x="804" y="727" />
            </Array>
          </mxGeometry>
        </mxCell>
        <mxCell id="YblVoAuH88jNYZOuT4qQ-9" value="&lt;b&gt;限时获取任务&lt;/b&gt;" style="rounded=0;whiteSpace=wrap;html=1;fontSize=14;fillColor=#d5e8d4;strokeColor=#82b366;sketch=1;" vertex="1" parent="1">
          <mxGeometry x="611" y="586" width="138" height="48" as="geometry" />
        </mxCell>
        <mxCell id="YblVoAuH88jNYZOuT4qQ-13" value="" style="edgeStyle=orthogonalEdgeStyle;rounded=0;orthogonalLoop=1;jettySize=auto;html=1;" edge="1" parent="1" source="YblVoAuH88jNYZOuT4qQ-10" target="YblVoAuH88jNYZOuT4qQ-4">
          <mxGeometry relative="1" as="geometry" />
        </mxCell>
        <mxCell id="YblVoAuH88jNYZOuT4qQ-10" value="&lt;b&gt;获取线程池状态及线程数量&lt;/b&gt;" style="rounded=0;whiteSpace=wrap;html=1;fontSize=14;fillColor=#d5e8d4;strokeColor=#82b366;sketch=1;" vertex="1" parent="1">
          <mxGeometry x="336.5" y="274" width="138" height="48" as="geometry" />
        </mxCell>
      </root>
    </mxGraphModel>
  </diagram>
</mxfile>
